<svg width="26" height="28" viewBox="0 0 26 28" fill="none" xmlns="http://www.w3.org/2000/svg">
<path fill-rule="evenodd" clip-rule="evenodd" d="M12.7805 1.16699C15.7206 1.16699 18.4837 2.47016 20.5591 4.83733C24.8491 9.72799 24.8491 17.6847 20.5591 22.5753C18.4561 24.974 15.6244 26.2433 12.7559 26.2433C11.1922 26.2433 9.61828 25.8665 8.14566 25.0895C7.71175 24.8912 7.30547 24.7045 7.01381 24.7045C6.67815 24.7068 6.22684 24.8842 5.79089 25.0557C4.89646 25.4057 3.78304 25.842 2.95923 24.9063C2.13849 23.9695 2.51713 22.7037 2.8221 21.6852C2.97253 21.1835 3.12706 20.6655 3.12706 20.2735C3.12706 19.9515 2.99095 19.5408 2.78219 18.9493C0.865417 14.2302 1.75165 8.54266 5.00289 4.83849C7.07828 2.47133 9.84035 1.16699 12.7805 1.16699ZM12.7815 2.91699C10.2507 2.91699 7.87344 4.03933 6.08766 6.07633C3.28978 9.26366 2.52839 14.1578 4.19136 18.2563C4.43083 18.9318 4.66211 19.5898 4.66211 20.2735C4.66211 20.956 4.45642 21.6432 4.27528 22.2498C4.12587 22.7492 3.8997 23.5028 4.04502 23.6685C4.18727 23.8365 4.85246 23.5717 5.29148 23.4002C5.81852 23.1948 6.41617 22.9592 7.0087 22.9545C7.60225 22.9545 8.16203 23.2112 8.75456 23.483C12.3844 25.3963 16.6775 24.526 19.4743 21.3387C23.1646 17.1293 23.1646 10.2822 19.4743 6.07516C17.6875 4.03816 15.3113 2.91699 12.7815 2.91699ZM16.8206 13.0235C17.3855 13.0235 17.844 13.545 17.844 14.1901C17.844 14.8353 17.3855 15.3568 16.8206 15.3568C16.2557 15.3568 15.7932 14.8353 15.7932 14.1901C15.7932 13.545 16.2465 13.0235 16.8114 13.0235H16.8206ZM12.7182 13.0235C13.2831 13.0235 13.7415 13.545 13.7415 14.1901C13.7415 14.8353 13.2831 15.3568 12.7182 15.3568C12.1533 15.3568 11.6907 14.8353 11.6907 14.1901C11.6907 13.545 12.143 13.0235 12.709 13.0235H12.7182ZM8.61528 13.0235C9.18018 13.0235 9.63865 13.545 9.63865 14.1901C9.63865 14.8353 9.18018 15.3568 8.61528 15.3568C8.05038 15.3568 7.58782 14.8353 7.58782 14.1901C7.58782 13.545 8.04117 13.0235 8.60607 13.0235H8.61528Z" fill="black" fill-opacity="0.6"/>
</svg>
