<svg width="26" height="28" viewBox="0 0 26 28" fill="none" xmlns="http://www.w3.org/2000/svg">
<path fill-rule="evenodd" clip-rule="evenodd" d="M11.1853 23.457C11.7154 24.1301 12.396 24.5 13.1021 24.5H13.1031C13.8123 24.5 14.4959 24.1301 15.027 23.4558C15.3115 23.0976 15.7966 23.0685 16.1108 23.3916C16.426 23.7148 16.4516 24.269 16.1681 24.6271C15.3412 25.6736 14.2534 26.25 13.1031 26.25H13.1011C11.9539 26.2488 10.8681 25.6725 10.0443 24.626C9.76079 24.2678 9.78638 23.7136 10.1016 23.3916C10.4168 23.0673 10.9018 23.0965 11.1853 23.457ZM13.1531 1.16663C17.7019 1.16663 20.7577 5.20563 20.7577 8.97746C20.7577 10.9176 21.1906 11.7401 21.6501 12.6128C22.1045 13.4738 22.6192 14.4515 22.6192 16.2995C22.2621 21.021 17.9383 21.406 13.1531 21.406C8.36778 21.406 4.04303 21.021 3.68995 16.3741C3.6869 14.4515 4.20165 13.4738 4.65603 12.6128L4.81644 12.305C5.21138 11.5311 5.5484 10.6894 5.5484 8.97746C5.5484 5.20563 8.60418 1.16663 13.1531 1.16663ZM13.1531 2.91663C9.57638 2.91663 7.08346 6.11096 7.08346 8.97746C7.08346 11.403 6.49297 12.5241 5.97106 13.5135C5.5525 14.308 5.22195 14.9356 5.22195 16.2995C5.39285 18.4998 6.66695 19.656 13.1531 19.656C19.6033 19.656 20.9173 18.4485 21.0872 16.2236C21.0842 14.9356 20.7536 14.308 20.335 13.5135C19.8131 12.5241 19.2226 11.403 19.2226 8.97746C19.2226 6.11096 16.7297 2.91663 13.1531 2.91663Z" fill="black" fill-opacity="0.6"/>
</svg>
