<svg width="12" height="19" viewBox="0 0 12 19" fill="none" xmlns="http://www.w3.org/2000/svg">
<path d="M8.15205 0.672363C9.90609 0.672363 11.0698 2.77693 11.0698 5.80449V12.9574C11.0698 15.985 9.90609 18.0896 8.15205 18.0896H3.6431C1.88905 18.0896 0.725342 15.985 0.725342 12.9574V5.80449C0.725342 2.77976 1.89213 0.672363 3.6431 0.672363H8.15205ZM8.15205 1.88752H3.6431C2.30247 1.88752 1.44705 3.43255 1.44705 5.80449V12.9574C1.44705 15.3325 2.29962 16.8744 3.6431 16.8744H8.15205C9.49552 16.8744 10.3481 15.3325 10.3481 12.9574V5.80449C10.3481 3.4294 9.49552 1.88752 8.15205 1.88752ZM5.89757 5.79813C6.08026 5.79813 6.23124 6.02671 6.25513 6.32327L6.25843 6.40571L6.25808 8.76527L7.66174 8.76568C7.86104 8.76568 8.0226 9.03771 8.0226 9.37326C8.0226 9.68085 7.88684 9.93506 7.71071 9.97529L7.66174 9.98084L6.25808 9.98012L6.25843 12.3408C6.25843 12.6764 6.09687 12.9484 5.89757 12.9484C5.71489 12.9484 5.56391 12.7198 5.54001 12.4233L5.53672 12.3408L5.53655 9.98012L4.1334 9.98084C3.93411 9.98084 3.77255 9.70882 3.77255 9.37326C3.77255 9.06567 3.9083 8.81146 4.08443 8.77123L4.1334 8.76568L5.53655 8.76527L5.53672 6.40571C5.53672 6.07015 5.69828 5.79813 5.89757 5.79813Z" fill="#666666"/>
</svg>
