<svg width="26" height="28" viewBox="0 0 26 28" fill="none" xmlns="http://www.w3.org/2000/svg">
<path fill-rule="evenodd" clip-rule="evenodd" d="M21.0241 21.2253C21.0241 25.0706 16.3985 25.5151 12.9201 25.5151L12.6711 25.5149C10.455 25.5088 4.81396 25.3492 4.81396 21.202C4.81396 17.4351 9.2537 16.9317 12.7057 16.9127L13.169 16.9124C15.385 16.9185 21.0241 17.078 21.0241 21.2253ZM12.9201 18.6621C8.55949 18.6621 6.34902 19.5161 6.34902 21.202C6.34902 22.903 8.55949 23.7651 12.9201 23.7651C17.2796 23.7651 19.4891 22.9111 19.4891 21.2253C19.4891 19.5243 17.2796 18.6621 12.9201 18.6621ZM12.9201 2.33301C15.9165 2.33301 18.3531 5.11201 18.3531 8.52801C18.3531 11.944 15.9165 14.7218 12.9201 14.7218H12.8873C9.89703 14.7113 7.47472 11.9312 7.48492 8.52451C7.48492 5.11201 9.92262 2.33301 12.9201 2.33301ZM12.9201 3.99901C10.729 3.99901 8.9463 6.03017 8.9463 8.52801C8.93916 11.0177 10.7086 13.0477 12.8904 13.057L12.9201 13.89V13.057C15.1101 13.057 16.8918 11.0247 16.8918 8.52801C16.8918 6.03017 15.1101 3.99901 12.9201 3.99901Z" fill="black" fill-opacity="0.6"/>
</svg>
