<svg width="20" height="20" viewBox="0 0 20 20" fill="none" xmlns="http://www.w3.org/2000/svg">
<path fill-rule="evenodd" clip-rule="evenodd" d="M9.54207 1.66663C13.9021 1.66663 17.4486 5.30663 17.4486 9.78163C17.4486 11.8929 16.6591 13.8185 15.3673 15.2637L17.9092 17.8672C18.1471 18.1114 18.1479 18.5064 17.9101 18.7505C17.7915 18.8739 17.6348 18.9347 17.4789 18.9347C17.3238 18.9347 17.168 18.8739 17.0486 18.7522L14.476 16.1191C13.1227 17.2315 11.4068 17.8975 9.54207 17.8975C5.18205 17.8975 1.63477 14.2566 1.63477 9.78163C1.63477 5.30663 5.18205 1.66663 9.54207 1.66663ZM9.54207 2.91663C5.85351 2.91663 2.85265 5.99579 2.85265 9.78163C2.85265 13.5675 5.85351 16.6475 9.54207 16.6475C13.2298 16.6475 16.2307 13.5675 16.2307 9.78163C16.2307 5.99579 13.2298 2.91663 9.54207 2.91663Z" fill="#1C1C1C" fill-opacity="0.7"/>
</svg>
