<svg width="22" height="21" viewBox="0 0 22 21" fill="none" xmlns="http://www.w3.org/2000/svg">
<g clip-path="url(#clip0_445_771)">
<path d="M20.504 9.96975V17.4846H17.171L17.0027 17.5035C13.9084 18.1923 11.858 18.6889 10.8361 18.9966C9.47867 19.405 8.97267 19.5048 8.05197 19.5636C7.36337 19.6088 6.58127 19.3557 6.22487 19.0092C6.02797 18.8181 5.88057 18.4254 5.82227 17.8164C5.81019 17.6887 5.76236 17.5664 5.68379 17.4624C5.60522 17.3584 5.4988 17.2765 5.37567 17.2253C5.10177 17.1119 4.87407 16.927 4.68377 16.6582C4.50777 16.4125 4.39337 15.9547 4.37247 15.2922C4.36879 15.1704 4.33262 15.0515 4.26736 14.9468C4.20211 14.842 4.10993 14.7549 3.99957 14.6937C3.35937 14.3399 3.04257 13.9409 2.97657 13.4726C2.90397 12.9549 3.07997 12.3721 3.54087 11.7085C3.64901 11.5529 3.68928 11.3632 3.65313 11.1796C3.61698 10.9961 3.50724 10.8333 3.34727 10.7258C2.90617 10.4297 2.66417 10.018 2.60367 9.43425C2.50687 8.50395 3.12837 7.8162 4.53527 7.67865C5.78831 7.56035 7.05345 7.66105 8.26867 7.9758C8.40652 8.01019 8.55179 8.00628 8.68739 7.96453C8.82299 7.92279 8.94328 7.84494 9.03411 7.74015C9.12493 7.63536 9.18252 7.508 9.20008 7.37303C9.21765 7.23806 9.19447 7.10112 9.13327 6.9783C8.58327 5.8674 8.27747 4.95075 8.20597 4.24095C8.11247 3.2991 8.34017 2.6166 8.87257 2.0538C9.27627 1.6275 9.92197 1.3839 10.164 1.4343C10.483 1.4994 10.6909 1.6758 10.9615 2.2932C11.121 2.6586 11.198 2.9694 11.33 3.69495C11.4565 4.38375 11.5258 4.69455 11.6699 5.10195C12.1044 6.33675 13.1703 7.6167 14.6014 8.49975C15.6044 9.1179 16.6914 9.60191 17.8321 9.93825C17.9033 9.95922 17.9775 9.96984 18.0521 9.96975H20.504V9.96975ZM20.5502 18.9157C20.9055 18.9252 21.2245 18.8496 21.4918 18.6711C21.8328 18.4433 21.9934 18.0842 21.9967 17.6705L21.9934 9.9813C22.0308 9.5718 21.9043 9.1959 21.6051 8.9166C21.3246 8.6541 20.9583 8.5302 20.5711 8.5386H18.1676C17.1953 8.24289 16.2684 7.82556 15.411 7.2975C14.2582 6.5856 13.409 5.565 13.0845 4.6452C12.9734 4.3281 12.914 4.0656 12.8018 3.4482C12.65 2.61975 12.5554 2.2344 12.3376 1.7388C11.8866 0.707701 11.2948 0.203701 10.4786 0.0346507C9.67557 -0.131249 8.50627 0.310801 7.76707 1.092C6.94757 1.9572 6.58567 3.03975 6.71987 4.37745C6.77707 4.95285 6.94427 5.5965 7.21927 6.31365C6.28011 6.18301 5.32768 6.16326 4.38347 6.25485C2.17577 6.4701 0.936067 7.84245 1.11647 9.57705C1.19567 10.3247 1.47947 10.9599 1.96237 11.4587C1.55647 12.2052 1.39477 12.9433 1.49597 13.6636C1.61257 14.4931 2.09657 15.184 2.90177 15.7206C2.96447 16.4482 3.13937 17.0289 3.44957 17.4636C3.69399 17.8148 4.01289 18.1131 4.38567 18.3393C4.50447 19.0575 4.75417 19.6193 5.16227 20.0141C5.83877 20.6714 7.04767 21.063 8.15207 20.9916C9.20037 20.9244 9.82077 20.8026 11.2838 20.3616C12.2485 20.0708 14.2461 19.5877 17.2568 18.9157H20.5513H20.5502ZM18.6791 9.6432C18.6794 9.54926 18.6602 9.45619 18.6228 9.36932C18.5853 9.28245 18.5303 9.20349 18.4608 9.13697C18.3913 9.07044 18.3087 9.01766 18.2178 8.98165C18.1269 8.94564 18.0295 8.9271 17.9311 8.9271C17.8328 8.92738 17.7356 8.94612 17.645 8.98225C17.5543 9.01839 17.472 9.07121 17.4028 9.13771C17.3335 9.20421 17.2787 9.28307 17.2414 9.3698C17.204 9.45654 17.185 9.54944 17.1853 9.6432V17.7051C17.1851 17.7989 17.2043 17.8917 17.2418 17.9784C17.2792 18.0651 17.3342 18.1439 17.4036 18.2103C17.4729 18.2767 17.5553 18.3294 17.646 18.3654C17.7367 18.4014 17.8339 18.42 17.9322 18.4201C18.0304 18.42 18.1276 18.4014 18.2183 18.3654C18.309 18.3294 18.3914 18.2767 18.4608 18.2103C18.5301 18.1439 18.5851 18.0651 18.6226 17.9784C18.66 17.8917 18.6792 17.7989 18.6791 17.7051V9.6432V9.6432Z" fill="black"/>
</g>
<defs>
<clipPath id="clip0_445_771">
<rect width="22" height="21" fill="white" transform="matrix(-1 0 0 1 22 0)"/>
</clipPath>
</defs>
</svg>
