<svg width="25" height="28" viewBox="0 0 25 28" fill="none" xmlns="http://www.w3.org/2000/svg">
<path d="M9.44086 24.2356V20.6682C9.44086 19.7576 10.0996 19.0194 10.9122 19.0194H13.8827C14.2729 19.0194 14.6472 19.1931 14.9231 19.5023C15.199 19.8115 15.3541 20.2309 15.3541 20.6682V24.2356C15.3516 24.6142 15.4841 24.9782 15.7221 25.2469C15.9601 25.5156 16.284 25.6667 16.6218 25.6667H18.6484C19.5949 25.6694 20.5035 25.25 21.1736 24.5009C21.8438 23.7519 22.2204 22.7348 22.2204 21.6741V11.5113C22.2204 10.6545 21.8815 9.84182 21.295 9.29212L14.4009 3.12185C13.2017 2.03999 11.4834 2.07492 10.32 3.20481L3.58318 9.29212C2.969 9.82561 2.60191 10.6407 2.58377 11.5113V21.6638C2.58377 23.8745 4.183 25.6667 6.15575 25.6667H8.13607C8.83775 25.6667 9.40801 25.0323 9.41309 24.2459L9.44086 24.2356Z" fill="#0C4195"/>
</svg>
