<svg width="26" height="28" viewBox="0 0 26 28" fill="none" xmlns="http://www.w3.org/2000/svg">
<path fill-rule="evenodd" clip-rule="evenodd" d="M21.0783 21.2253C21.0783 25.0706 16.4068 25.5151 12.8939 25.5151L12.6425 25.5149C10.4044 25.5087 4.70752 25.3492 4.70752 21.2019C4.70752 17.4351 9.19124 16.9317 12.6774 16.9127L13.1453 16.9124C15.3833 16.9185 21.0783 17.078 21.0783 21.2253ZM12.8939 18.6621C8.49016 18.6621 6.25778 19.5161 6.25778 21.2019C6.25778 22.9029 8.49016 23.7651 12.8939 23.7651C17.2967 23.7651 19.528 22.9111 19.528 21.2253C19.528 19.5243 17.2967 18.6621 12.8939 18.6621ZM12.8939 2.33298C15.92 2.33298 18.3808 5.11198 18.3808 8.52798C18.3808 11.944 15.92 14.7218 12.8939 14.7218H12.8609C9.84095 14.7113 7.39464 11.9311 7.40494 8.52448C7.40494 5.11198 9.86679 2.33298 12.8939 2.33298ZM12.8939 3.99898C10.6812 3.99898 8.8808 6.03015 8.8808 8.52798C8.87359 11.0176 10.6605 13.0476 12.864 13.057L12.8939 13.89V13.057C15.1056 13.057 16.905 11.0246 16.905 8.52798C16.905 6.03015 15.1056 3.99898 12.8939 3.99898Z" fill="black" fill-opacity="0.6"/>
</svg>
