<svg width="25" height="28" viewBox="0 0 25 28" fill="none" xmlns="http://www.w3.org/2000/svg">
<path fill-rule="evenodd" clip-rule="evenodd" d="M10.6702 23.457C11.2056 24.1302 11.8929 24.5 12.606 24.5H12.607C13.3232 24.5 14.0136 24.1302 14.55 23.4558C14.8373 23.0977 15.3272 23.0685 15.6445 23.3917C15.9628 23.7148 15.9887 24.269 15.7024 24.6272C14.8673 25.6737 13.7687 26.25 12.607 26.25H12.605C11.4464 26.2488 10.3498 25.6725 9.51787 24.626C9.23159 24.2678 9.25743 23.7137 9.57575 23.3917C9.89407 23.0673 10.384 23.0965 10.6702 23.457ZM12.6575 1.16666C17.2514 1.16666 20.3375 5.20566 20.3375 8.9775C20.3375 10.9177 20.7746 11.7402 21.2387 12.6128C21.6975 13.4738 22.2174 14.4515 22.2174 16.2995C21.8567 21.021 17.4901 21.406 12.6575 21.406C7.82478 21.406 3.45718 21.021 3.10061 16.3742C3.09752 14.4515 3.61738 13.4738 4.07625 12.6128L4.23825 12.305C4.63711 11.5312 4.97747 10.6894 4.97747 8.9775C4.97747 5.20566 8.06352 1.16666 12.6575 1.16666ZM12.6575 2.91666C9.04535 2.91666 6.52773 6.111 6.52773 8.9775C6.52773 11.403 5.9314 12.5242 5.40431 13.5135C4.9816 14.308 4.64778 14.9357 4.64778 16.2995C4.82038 18.4998 6.10709 19.656 12.6575 19.656C19.1717 19.656 20.4987 18.4485 20.6702 16.2237C20.6671 14.9357 20.3333 14.308 19.9106 13.5135C19.3835 12.5242 18.7872 11.403 18.7872 8.9775C18.7872 6.111 16.2696 2.91666 12.6575 2.91666Z" fill="black" fill-opacity="0.6"/>
</svg>
