<svg width="26" height="28" viewBox="0 0 26 28" fill="none" xmlns="http://www.w3.org/2000/svg">
<path fill-rule="evenodd" clip-rule="evenodd" d="M12.901 1.16701C15.8703 1.16701 18.6608 2.47018 20.7567 4.83735C25.0892 9.72801 25.0892 17.6847 20.7567 22.5753C18.6329 24.974 15.7732 26.2433 12.8762 26.2433C11.297 26.2433 9.7075 25.8665 8.22028 25.0895C7.78208 24.8912 7.37177 24.7045 7.07722 24.7045C6.73823 24.7068 6.28246 24.8842 5.84218 25.0557C4.9389 25.4057 3.81444 25.842 2.98247 24.9063C2.1536 23.9695 2.53599 22.7037 2.84398 21.6852C2.9959 21.1835 3.15196 20.6655 3.15196 20.2735C3.15196 19.9515 3.01451 19.5408 2.80367 18.9493C0.867913 14.2302 1.76293 8.54268 5.04638 4.83851C7.14234 2.47135 9.93177 1.16701 12.901 1.16701ZM12.9021 2.91701C10.3462 2.91701 7.94537 4.03935 6.1419 6.07635C3.31629 9.26368 2.54736 14.1578 4.22681 18.2563C4.46865 18.9318 4.70222 19.5898 4.70222 20.2735C4.70222 20.956 4.49449 21.6432 4.31156 22.2498C4.16067 22.7492 3.93226 23.5028 4.07902 23.6685C4.22268 23.8365 4.89446 23.5717 5.33783 23.4002C5.87009 23.1948 6.47366 22.9592 7.07206 22.9545C7.67149 22.9545 8.23682 23.2112 8.83522 23.483C12.5011 25.3963 16.8366 24.526 19.6612 21.3387C23.388 17.1293 23.388 10.2822 19.6612 6.07518C17.8567 4.03818 15.4569 2.91701 12.9021 2.91701ZM16.9812 13.0235C17.5517 13.0235 18.0147 13.545 18.0147 14.1902C18.0147 14.8353 17.5517 15.3568 16.9812 15.3568C16.4107 15.3568 15.9436 14.8353 15.9436 14.1902C15.9436 13.545 16.4014 13.0235 16.9719 13.0235H16.9812ZM12.8381 13.0235C13.4086 13.0235 13.8716 13.545 13.8716 14.1902C13.8716 14.8353 13.4086 15.3568 12.8381 15.3568C12.2676 15.3568 11.8005 14.8353 11.8005 14.1902C11.8005 13.545 12.2573 13.0235 12.8288 13.0235H12.8381ZM8.69456 13.0235C9.26506 13.0235 9.72807 13.545 9.72807 14.1902C9.72807 14.8353 9.26506 15.3568 8.69456 15.3568C8.12406 15.3568 7.65692 14.8353 7.65692 14.1902C7.65692 13.545 8.11476 13.0235 8.68526 13.0235H8.69456Z" fill="black" fill-opacity="0.6"/>
</svg>
