<svg width="65" height="44" viewBox="0 0 65 44" fill="none" xmlns="http://www.w3.org/2000/svg">
<path d="M0.893066 0H46.5194C56.4605 0 64.5194 8.05887 64.5194 18V26C64.5194 35.9411 56.4605 44 46.5194 44H0.893066V0Z" fill="#0C4195" fill-opacity="0.46"/>
<path fill-rule="evenodd" clip-rule="evenodd" d="M30.9146 13.6667C35.5823 13.6667 39.379 17.3067 39.379 21.7817C39.379 23.893 38.5339 25.8186 37.1509 27.2637L39.8722 29.8672C40.1269 30.1114 40.1278 30.5064 39.8731 30.7506C39.7462 30.8739 39.5784 30.9347 39.4116 30.9347C39.2455 30.9347 39.0786 30.8739 38.9509 30.7522L36.1967 28.1192C34.7479 29.2315 32.9109 29.8975 30.9146 29.8975C26.2469 29.8975 22.4493 26.2567 22.4493 21.7817C22.4493 17.3067 26.2469 13.6667 30.9146 13.6667ZM30.9146 14.9167C26.9658 14.9167 23.7531 17.9958 23.7531 21.7817C23.7531 25.5675 26.9658 28.6475 30.9146 28.6475C34.8626 28.6475 38.0752 25.5675 38.0752 21.7817C38.0752 17.9958 34.8626 14.9167 30.9146 14.9167Z" fill="#1C1C1C" fill-opacity="0.7"/>
</svg>
