<svg width="25" height="28" viewBox="0 0 25 28" fill="none" xmlns="http://www.w3.org/2000/svg">
<path fill-rule="evenodd" clip-rule="evenodd" d="M12.1747 1.16699C15.1149 1.16699 17.878 2.47016 19.9534 4.83733C24.2433 9.72799 24.2433 17.6847 19.9534 22.5753C17.8503 24.974 15.0187 26.2433 12.1502 26.2433C10.5865 26.2433 9.01253 25.8665 7.5399 25.0895C7.10599 24.8912 6.69971 24.7045 6.40805 24.7045C6.07239 24.7068 5.62108 24.8842 5.18513 25.0557C4.29071 25.4057 3.17728 25.842 2.35347 24.9063C1.53273 23.9695 1.91137 22.7037 2.21634 21.6852C2.36677 21.1835 2.5213 20.6655 2.5213 20.2735C2.5213 19.9515 2.38519 19.5408 2.17643 18.9493C0.259658 14.2302 1.14589 8.54266 4.39714 4.83849C6.47253 2.47133 9.2346 1.16699 12.1747 1.16699ZM12.1758 2.91699C9.64497 2.91699 7.26768 4.03933 5.48191 6.07633C2.68402 9.26366 1.92263 14.1578 3.5856 18.2563C3.82507 18.9318 4.05635 19.5898 4.05635 20.2735C4.05635 20.956 3.85066 21.6432 3.66952 22.2498C3.52011 22.7492 3.29394 23.5028 3.43926 23.6685C3.58151 23.8365 4.2467 23.5717 4.68572 23.4002C5.21276 23.1948 5.81041 22.9592 6.40294 22.9545C6.99649 22.9545 7.55627 23.2112 8.1488 23.483C11.7787 25.3963 16.0717 24.526 18.8686 21.3387C22.5588 17.1293 22.5588 10.2822 18.8686 6.07516C17.0818 4.03816 14.7055 2.91699 12.1758 2.91699ZM16.2149 13.0235C16.7798 13.0235 17.2383 13.545 17.2383 14.1901C17.2383 14.8353 16.7798 15.3568 16.2149 15.3568C15.65 15.3568 15.1874 14.8353 15.1874 14.1901C15.1874 13.545 15.6408 13.0235 16.2057 13.0235H16.2149ZM12.1124 13.0235C12.6773 13.0235 13.1358 13.545 13.1358 14.1901C13.1358 14.8353 12.6773 15.3568 12.1124 15.3568C11.5475 15.3568 11.0849 14.8353 11.0849 14.1901C11.0849 13.545 11.5373 13.0235 12.1032 13.0235H12.1124ZM8.00952 13.0235C8.57442 13.0235 9.03289 13.545 9.03289 14.1901C9.03289 14.8353 8.57442 15.3568 8.00952 15.3568C7.44462 15.3568 6.98206 14.8353 6.98206 14.1901C6.98206 13.545 7.43541 13.0235 8.00031 13.0235H8.00952Z" fill="black" fill-opacity="0.6"/>
</svg>
