<svg width="25" height="28" viewBox="0 0 25 28" fill="none" xmlns="http://www.w3.org/2000/svg">
<path d="M9.34824 24.2356V20.6683C9.34824 19.7576 10.0005 19.0194 10.8052 19.0194H13.7465C14.1329 19.0194 14.5035 19.1931 14.7767 19.5023C15.0499 19.8116 15.2034 20.231 15.2034 20.6683V24.2356C15.201 24.6142 15.3322 24.9782 15.5679 25.2469C15.8035 25.5156 16.1242 25.6667 16.4588 25.6667H18.4655C19.4027 25.6695 20.3023 25.25 20.9659 24.501C21.6295 23.7519 22.0024 22.7349 22.0024 21.6742V11.5114C22.0024 10.6546 21.6668 9.84186 21.0861 9.29215L14.2596 3.12189C13.0722 2.04003 11.3708 2.07496 10.2187 3.20485L3.54803 9.29215C2.93987 9.82565 2.57638 10.6408 2.55842 11.5114V21.6638C2.55842 23.8745 4.14196 25.6667 6.09536 25.6667H8.05625C8.75105 25.6667 9.31571 25.0323 9.32075 24.246L9.34824 24.2356Z" fill="#0C4195"/>
</svg>
