<svg width="25" height="28" viewBox="0 0 25 28" fill="none" xmlns="http://www.w3.org/2000/svg">
<path fill-rule="evenodd" clip-rule="evenodd" d="M10.5795 23.457C11.1096 24.1301 11.7901 24.5 12.4962 24.5H12.4973C13.2064 24.5 13.8901 24.1301 14.4212 23.4558C14.7057 23.0976 15.1908 23.0685 15.5049 23.3916C15.8201 23.7148 15.8457 24.269 15.5622 24.6271C14.7354 25.6736 13.6475 26.25 12.4973 26.25H12.4952C11.348 26.2488 10.2622 25.6725 9.43841 24.626C9.15493 24.2678 9.18052 23.7136 9.49572 23.3916C9.81091 23.0673 10.296 23.0965 10.5795 23.457ZM12.5472 1.16663C17.0961 1.16663 20.1518 5.20563 20.1518 8.97746C20.1518 10.9176 20.5847 11.7401 21.0442 12.6128C21.4986 13.4738 22.0133 14.4515 22.0133 16.2995C21.6562 21.021 17.3325 21.406 12.5472 21.406C7.76193 21.406 3.43717 21.021 3.0841 16.3741C3.08104 14.4515 3.59579 13.4738 4.05017 12.6128L4.21058 12.305C4.60553 11.5311 4.94255 10.6894 4.94255 8.97746C4.94255 5.20563 7.99832 1.16663 12.5472 1.16663ZM12.5472 2.91663C8.97052 2.91663 6.4776 6.11096 6.4776 8.97746C6.4776 11.403 5.88712 12.5241 5.3652 13.5135C4.94664 14.308 4.61609 14.9356 4.61609 16.2995C4.78699 18.4998 6.06109 19.656 12.5472 19.656C18.9975 19.656 20.3115 18.4485 20.4814 16.2236C20.4783 14.9356 20.1477 14.308 19.7292 13.5135C19.2073 12.5241 18.6168 11.403 18.6168 8.97746C18.6168 6.11096 16.1239 2.91663 12.5472 2.91663Z" fill="black" fill-opacity="0.6"/>
</svg>
