<svg width="25" height="28" viewBox="0 0 25 28" fill="none" xmlns="http://www.w3.org/2000/svg">
<path fill-rule="evenodd" clip-rule="evenodd" d="M20.4183 21.2253C20.4183 25.0706 15.7926 25.5151 12.3142 25.5151L12.0653 25.5149C9.84911 25.5088 4.2081 25.3492 4.2081 21.202C4.2081 17.4351 8.64783 16.9317 12.0998 16.9127L12.5631 16.9124C14.7791 16.9185 20.4183 17.078 20.4183 21.2253ZM12.3142 18.6621C7.95363 18.6621 5.74315 19.5161 5.74315 21.202C5.74315 22.903 7.95363 23.7651 12.3142 23.7651C16.6737 23.7651 18.8832 22.9111 18.8832 21.2253C18.8832 19.5243 16.6737 18.6621 12.3142 18.6621ZM12.3142 2.33301C15.3106 2.33301 17.7473 5.11201 17.7473 8.52801C17.7473 11.944 15.3106 14.7218 12.3142 14.7218H12.2815C9.29117 14.7113 6.86886 11.9312 6.87906 8.52451C6.87906 5.11201 9.31675 2.33301 12.3142 2.33301ZM12.3142 3.99901C10.1232 3.99901 8.34044 6.03017 8.34044 8.52801C8.3333 11.0177 10.1027 13.0477 12.2845 13.057L12.3142 13.89V13.057C14.5042 13.057 16.2859 11.0247 16.2859 8.52801C16.2859 6.03017 14.5042 3.99901 12.3142 3.99901Z" fill="black" fill-opacity="0.6"/>
</svg>
