<svg width="23" height="24" viewBox="0 0 23 24" fill="none" xmlns="http://www.w3.org/2000/svg">
<path d="M19.5043 19.2089C19.8366 19.2089 20.1059 19.498 20.1059 19.8545C20.1059 20.1813 19.8796 20.4514 19.586 20.4941L19.5043 20.5H13.2284C12.8962 20.5 12.6269 20.211 12.6269 19.8545C12.6269 19.5277 12.8532 19.2576 13.1468 19.2148L13.2284 19.2089H19.5043ZM13.4004 4.41662C14.5393 3.19446 16.3865 3.19446 17.5254 4.41662L18.7077 5.6854C19.8466 6.90755 19.8466 8.88985 18.7077 10.112L9.82086 19.6486C9.3127 20.1939 8.62373 20.4999 7.90461 20.4999H4.26513C3.92703 20.4999 3.65534 20.201 3.66377 19.8383L3.75531 15.8975C3.77352 15.1526 4.05752 14.4425 4.54841 13.9157L13.4004 4.41662ZM12.7123 6.979L5.39913 14.8287C5.12626 15.1215 4.96812 15.5169 4.95802 15.9305L4.88163 19.2084L7.90461 19.2088C8.26031 19.2088 8.60239 19.0745 8.87239 18.8317L8.97014 18.7357L16.3196 10.849L12.7123 6.979ZM16.6747 5.32953C16.0056 4.61156 14.9201 4.61156 14.2511 5.32953L13.5637 6.066L17.17 9.936L17.857 9.19909C18.4889 8.52101 18.524 7.44433 17.9623 6.72195L17.857 6.59831L16.6747 5.32953Z" fill="#666666"/>
</svg>
