<svg width="26" height="28" viewBox="0 0 26 28" fill="none" xmlns="http://www.w3.org/2000/svg">
<path fill-rule="evenodd" clip-rule="evenodd" d="M12.7809 1.16699C15.721 1.16699 18.4841 2.47016 20.5595 4.83733C24.8494 9.72799 24.8494 17.6847 20.5595 22.5753C18.4565 24.974 15.6248 26.2433 12.7563 26.2433C11.1926 26.2433 9.61865 25.8665 8.14602 25.0895C7.71212 24.8912 7.30584 24.7045 7.01418 24.7045C6.67851 24.7068 6.22721 24.8842 5.79125 25.0557C4.89683 25.4057 3.78341 25.842 2.95959 24.9063C2.13885 23.9695 2.5175 22.7037 2.82246 21.6852C2.9729 21.1835 3.12743 20.6655 3.12743 20.2735C3.12743 19.9515 2.99132 19.5408 2.78255 18.9493C0.865783 14.2302 1.75202 8.54266 5.00326 4.83849C7.07865 2.47133 9.84072 1.16699 12.7809 1.16699ZM12.7819 2.91699C10.2511 2.91699 7.87381 4.03933 6.08803 6.07633C3.29014 9.26366 2.52876 14.1578 4.19173 18.2563C4.4312 18.9318 4.66248 19.5898 4.66248 20.2735C4.66248 20.956 4.45678 21.6432 4.27565 22.2498C4.12623 22.7492 3.90007 23.5028 4.04539 23.6685C4.18764 23.8365 4.85283 23.5717 5.29185 23.4002C5.81888 23.1948 6.41653 22.9592 7.00906 22.9545C7.60262 22.9545 8.1624 23.2112 8.75493 23.483C12.3848 25.3963 16.6778 24.526 19.4747 21.3387C23.165 17.1293 23.165 10.2822 19.4747 6.07516C17.6879 4.03816 15.3116 2.91699 12.7819 2.91699ZM16.821 13.0235C17.3859 13.0235 17.8444 13.545 17.8444 14.1901C17.8444 14.8353 17.3859 15.3568 16.821 15.3568C16.2561 15.3568 15.7936 14.8353 15.7936 14.1901C15.7936 13.545 16.2469 13.0235 16.8118 13.0235H16.821ZM12.7185 13.0235C13.2834 13.0235 13.7419 13.545 13.7419 14.1901C13.7419 14.8353 13.2834 15.3568 12.7185 15.3568C12.1536 15.3568 11.6911 14.8353 11.6911 14.1901C11.6911 13.545 12.1434 13.0235 12.7093 13.0235H12.7185ZM8.61565 13.0235C9.18055 13.0235 9.63902 13.545 9.63902 14.1901C9.63902 14.8353 9.18055 15.3568 8.61565 15.3568C8.05075 15.3568 7.58819 14.8353 7.58819 14.1901C7.58819 13.545 8.04154 13.0235 8.60644 13.0235H8.61565Z" fill="black" fill-opacity="0.6"/>
</svg>
