<svg width="26" height="28" viewBox="0 0 26 28" fill="none" xmlns="http://www.w3.org/2000/svg">
<path d="M9.95413 24.2356V20.6683C9.95413 19.7576 10.6064 19.0194 11.4111 19.0194H14.3524C14.7388 19.0194 15.1094 19.1931 15.3826 19.5023C15.6558 19.8116 15.8093 20.231 15.8093 20.6683V24.2356C15.8069 24.6142 15.9381 24.9782 16.1737 25.2469C16.4094 25.5156 16.7301 25.6667 17.0647 25.6667H19.0714C20.0086 25.6695 20.9082 25.25 21.5718 24.501C22.2354 23.7519 22.6083 22.7349 22.6083 21.6742V11.5114C22.6083 10.6546 22.2727 9.84186 21.692 9.29215L14.8655 3.12189C13.678 2.04003 11.9766 2.07496 10.8246 3.20485L4.15392 9.29215C3.54576 9.82565 3.18227 10.6408 3.16431 11.5114V21.6638C3.16431 23.8745 4.74785 25.6667 6.70124 25.6667H8.66214C9.35694 25.6667 9.9216 25.0323 9.92664 24.246L9.95413 24.2356Z" fill="#0C4195"/>
</svg>
