<svg width="11" height="18" viewBox="0 0 11 18" fill="none" xmlns="http://www.w3.org/2000/svg">
<path d="M7.75837 0.236511C9.51907 0.236511 10.6872 2.34108 10.6872 5.36864V12.5216C10.6872 15.5492 9.51907 17.6537 7.75837 17.6537H3.2323C1.47159 17.6537 0.303467 15.5492 0.303467 12.5216V5.36864C0.303467 2.34391 1.47468 0.236511 3.2323 0.236511H7.75837ZM7.75837 1.45167H3.2323C1.88659 1.45167 1.02791 2.9967 1.02791 5.36864V12.5216C1.02791 14.8967 1.88373 16.4386 3.2323 16.4386H7.75837C9.10694 16.4386 9.96275 14.8967 9.96275 12.5216V5.36864C9.96275 2.99355 9.10694 1.45167 7.75837 1.45167ZM5.49533 5.36228C5.67871 5.36228 5.83027 5.59085 5.85425 5.88741L5.85756 5.96986L5.85721 8.32942L7.2662 8.32983C7.46625 8.32983 7.62843 8.60185 7.62843 8.93741C7.62843 9.245 7.49216 9.49921 7.31536 9.53944L7.2662 9.54499L5.85721 9.54427L5.85756 11.905C5.85756 12.2405 5.69538 12.5125 5.49533 12.5125C5.31195 12.5125 5.1604 12.284 5.13642 11.9874L5.13311 11.905L5.13294 9.54427L3.72446 9.54499C3.52441 9.54499 3.36224 9.27296 3.36224 8.93741C3.36224 8.62982 3.49851 8.37561 3.67531 8.33538L3.72446 8.32983L5.13294 8.32942L5.13311 5.96986C5.13311 5.6343 5.29528 5.36228 5.49533 5.36228Z" fill="#666666"/>
</svg>
