<svg width="16" height="16" viewBox="0 0 16 16" fill="none" xmlns="http://www.w3.org/2000/svg">
<path fill-rule="evenodd" clip-rule="evenodd" d="M10.8669 1.33333C13.1236 1.33333 14.6403 2.914 14.6403 5.266V10.7007C14.6403 13.0527 13.1236 14.6333 10.8669 14.6333H5.10027C2.84694 14.6333 1.3336 13.0527 1.3336 10.7007V5.266C1.3336 2.914 2.84694 1.33333 5.10027 1.33333H10.8669ZM10.8669 2.33333H5.10027C3.4196 2.33333 2.3336 3.48466 2.3336 5.266V10.7007C2.3336 12.4827 3.4196 13.6333 5.10027 13.6333H10.8669C12.5516 13.6333 13.6403 12.4827 13.6403 10.7007V5.266C13.6403 3.48466 12.5516 2.33333 10.8669 2.33333ZM11.2929 8.06626C11.2972 8.06969 11.3013 8.07311 11.31 8.08122L11.3229 8.09352C11.3255 8.09604 11.3283 8.09883 11.3315 8.10192L11.3687 8.13886C11.4889 8.25924 11.8212 8.59863 12.8116 9.61559C13.0043 9.81293 13.0009 10.1296 12.8029 10.3223C12.6056 10.5163 12.2883 10.5103 12.0956 10.3129C12.0956 10.3129 10.7296 8.91093 10.6323 8.81626C10.5289 8.7316 10.3629 8.68226 10.1996 8.69826C10.0336 8.71493 9.88427 8.79426 9.77827 8.92293C8.22894 10.8023 8.21027 10.8203 8.18494 10.8449C7.61294 11.4063 6.6896 11.3969 6.1276 10.8236C6.1276 10.8236 5.5076 10.1943 5.49694 10.1816C5.34294 10.0389 5.06827 10.0483 4.9036 10.2223L3.8836 11.2976C3.78494 11.4016 3.65294 11.4536 3.52094 11.4536C3.39694 11.4536 3.2736 11.4083 3.17694 11.3163C2.97627 11.1269 2.96827 10.8096 3.15827 10.6103L4.17694 9.53493C4.71627 8.96226 5.62627 8.93426 6.2016 9.47426L6.84027 10.1223C7.01827 10.3023 7.3076 10.3056 7.48627 10.1296C7.5536 10.0503 9.0056 8.28693 9.0056 8.28693C9.2816 7.95226 9.67094 7.7456 10.1036 7.70293C10.5369 7.66493 10.9576 7.79093 11.2929 8.06626ZM5.70574 4.41926C6.62707 4.41993 7.37574 5.16926 7.37574 6.0886C7.37574 7.00926 6.6264 7.7586 5.70574 7.7586C4.78507 7.7586 4.0364 7.00926 4.0364 6.0886C4.0364 5.16793 4.78507 4.41926 5.70574 4.41926ZM5.70507 5.41926C5.3364 5.41926 5.0364 5.71926 5.0364 6.0886C5.0364 6.45793 5.3364 6.7586 5.70574 6.7586C6.07507 6.7586 6.37574 6.45793 6.37574 6.0886C6.37574 5.71993 6.07507 5.41993 5.70507 5.41926Z" fill="black" fill-opacity="0.46"/>
</svg>
