<svg width="22" height="24" viewBox="0 0 22 24" fill="none" xmlns="http://www.w3.org/2000/svg">
<path d="M14.9156 2C18.0243 2 20.0961 4.42887 20.0961 7.91408V16.0849C20.0961 19.5703 18.0242 22 14.9156 22H6.9983C3.89111 22 1.8269 19.5722 1.8269 16.0849V7.91408C1.8269 4.43059 3.89714 2 6.9983 2H14.9156ZM14.9156 3.50383H6.9983C4.67751 3.50383 3.19984 5.2387 3.19984 7.91408V16.0849C3.19984 18.7647 4.67206 20.4962 6.9983 20.4962H14.9156C17.2442 20.4962 18.7232 18.7618 18.7232 16.0849V7.91408C18.7232 5.23744 17.2444 3.50383 14.9156 3.50383ZM15.5662 12.1835L15.6852 12.3086L17.5854 14.4561C17.8492 14.7543 17.8424 15.2303 17.5702 15.5193C17.3227 15.7821 16.941 15.7998 16.6754 15.5768L16.5995 15.5027L14.6994 13.3553C14.3684 12.9814 13.8303 12.9779 13.4943 13.3269L13.4206 13.4137L11.3807 16.1312C10.6592 17.0939 9.36094 17.1971 8.52097 16.3903L8.40937 16.2747L7.59529 15.3648C7.38145 15.1217 7.04043 15.0987 6.80295 15.2949L6.72794 15.3684L5.32846 16.9855C5.06764 17.2869 4.63314 17.2996 4.35799 17.0139C4.10785 16.7542 4.07551 16.3372 4.26766 16.0372L4.33205 15.9509L5.73123 14.3341C6.46783 13.4819 7.68084 13.4365 8.4655 14.1967L8.57988 14.3167L9.38985 15.222C9.62662 15.4865 10.0061 15.4933 10.2508 15.2553L10.3199 15.1766L12.3599 12.4589C13.1704 11.3782 14.6299 11.2689 15.5662 12.1835ZM7.83076 6.64124C9.09589 6.64124 10.1227 7.76589 10.1227 9.15164C10.1227 10.5374 9.09589 11.662 7.83076 11.662C6.56569 11.662 5.53979 10.5374 5.53979 9.15164C5.53979 7.76583 6.56569 6.64124 7.83076 6.64124ZM7.83076 8.14507C7.32418 8.14507 6.91272 8.59611 6.91272 9.15164C6.91272 9.70716 7.32418 10.1582 7.83076 10.1582C8.33764 10.1582 8.74972 9.70684 8.74972 9.15164C8.74972 8.59643 8.33764 8.14507 7.83076 8.14507Z" fill="#666666"/>
</svg>
