<svg width="12" height="19" viewBox="0 0 12 19" fill="none" xmlns="http://www.w3.org/2000/svg">
<path d="M8.29987 0.672363C10.0606 0.672363 11.2287 2.77693 11.2287 5.80449V12.9574C11.2287 15.985 10.0606 18.0896 8.29987 18.0896H3.7738C2.0131 18.0896 0.844971 15.985 0.844971 12.9574V5.80449C0.844971 2.77976 2.01618 0.672363 3.7738 0.672363H8.29987ZM8.29987 1.88752H3.7738C2.42809 1.88752 1.56942 3.43255 1.56942 5.80449V12.9574C1.56942 15.3325 2.42523 16.8744 3.7738 16.8744H8.29987C9.64845 16.8744 10.5043 15.3325 10.5043 12.9574V5.80449C10.5043 3.4294 9.64845 1.88752 8.29987 1.88752ZM6.03684 5.79813C6.22022 5.79813 6.37177 6.02671 6.39575 6.32327L6.39906 6.40571L6.39871 8.76527L7.80771 8.76568C8.00776 8.76568 8.16993 9.03771 8.16993 9.37326C8.16993 9.68085 8.03366 9.93506 7.85686 9.97529L7.80771 9.98084L6.39871 9.98012L6.39906 12.3408C6.39906 12.6764 6.23689 12.9484 6.03684 12.9484C5.85346 12.9484 5.70191 12.7198 5.67792 12.4233L5.67461 12.3408L5.67445 9.98012L4.26597 9.98084C4.06592 9.98084 3.90375 9.70882 3.90375 9.37326C3.90375 9.06567 4.04002 8.81146 4.21682 8.77123L4.26597 8.76568L5.67445 8.76527L5.67461 6.40571C5.67461 6.07015 5.83679 5.79813 6.03684 5.79813Z" fill="#666666"/>
</svg>
