<svg width="20" height="20" viewBox="0 0 20 20" fill="none" xmlns="http://www.w3.org/2000/svg">
<path fill-rule="evenodd" clip-rule="evenodd" d="M9.54219 1.66663C13.9022 1.66663 17.4487 5.30663 17.4487 9.78163C17.4487 11.8929 16.6593 13.8185 15.3674 15.2637L17.9094 17.8672C18.1473 18.1114 18.1481 18.5064 17.9102 18.7505C17.7916 18.8739 17.6349 18.9347 17.479 18.9347C17.324 18.9347 17.1681 18.8739 17.0487 18.7522L14.4761 16.1191C13.1228 17.2315 11.4069 17.8975 9.54219 17.8975C5.18217 17.8975 1.63489 14.2566 1.63489 9.78163C1.63489 5.30663 5.18217 1.66663 9.54219 1.66663ZM9.54219 2.91663C5.85363 2.91663 2.85277 5.99579 2.85277 9.78163C2.85277 13.5675 5.85363 16.6475 9.54219 16.6475C13.2299 16.6475 16.2308 13.5675 16.2308 9.78163C16.2308 5.99579 13.2299 2.91663 9.54219 2.91663Z" fill="#1C1C1C" fill-opacity="0.7"/>
</svg>
