<svg width="24" height="24" viewBox="0 0 24 24" fill="none" xmlns="http://www.w3.org/2000/svg">
<g clip-path="url(#clip0_1_318)">
<path d="M12.2343 2.34252L12.2019 2.48348L8.08693 18.123C7.6785 19.674 5.88704 19.9839 5.07803 18.7044L5.0005 18.5711L1.54938 12.1171L-4.18706 8.1312C-5.40642 7.28383 -5.20667 5.23709 -3.90482 4.68402L-3.77097 4.63379L10.0986 0.0780537C11.3524 -0.331543 12.5103 0.936854 12.2343 2.34252ZM10.5335 1.5042L10.4689 1.51862L-3.40015 6.0742C-3.68885 6.16879 -3.75977 6.5875 -3.54908 6.80416L-3.4905 6.85381L1.93473 10.6231L6.58136 5.3436C6.81645 5.07645 7.18548 5.05086 7.44622 5.26773L7.52096 5.34007C7.75761 5.60545 7.78029 6.02203 7.58816 6.31637L7.52408 6.40073L2.87109 11.6871L6.13816 17.7961C6.29367 18.087 6.65757 18.0579 6.78618 17.7724L6.81318 17.6957L10.9283 2.05571C11.0079 1.7541 10.7893 1.4732 10.5335 1.5042Z" fill="#200E32"/>
</g>
<defs>
<clipPath id="clip0_1_318">
<rect width="24" height="24" fill="white"/>
</clipPath>
</defs>
</svg>
