<svg width="22" height="21" viewBox="0 0 22 21" fill="none" xmlns="http://www.w3.org/2000/svg">
<g clip-path="url(#clip0_1_379)">
<path d="M20.504 9.96975V17.4846H17.171L17.0027 17.5035C13.9084 18.1923 11.858 18.689 10.8361 18.9966C9.47871 19.4051 8.97271 19.5048 8.05201 19.5636C7.36341 19.6088 6.58131 19.3557 6.22491 19.0092C6.02801 18.8181 5.88061 18.4254 5.82231 17.8164C5.81024 17.6887 5.76241 17.5664 5.68384 17.4624C5.60527 17.3584 5.49884 17.2765 5.37571 17.2253C5.10181 17.1119 4.87411 16.9271 4.68381 16.6583C4.50781 16.4126 4.39341 15.9548 4.37251 15.2922C4.36884 15.1704 4.33266 15.0515 4.26741 14.9468C4.20215 14.842 4.10998 14.7549 3.99961 14.6937C3.35941 14.3399 3.04261 13.9409 2.97661 13.4726C2.90401 12.9549 3.08001 12.3722 3.54091 11.7086C3.64905 11.5529 3.68933 11.3632 3.65318 11.1796C3.61702 10.9961 3.50729 10.8333 3.34731 10.7258C2.90621 10.4297 2.66421 10.0181 2.60371 9.43425C2.50691 8.50395 3.12841 7.8162 4.53531 7.67865C5.78836 7.56036 7.0535 7.66105 8.26871 7.9758C8.40656 8.01019 8.55184 8.00628 8.68744 7.96453C8.82304 7.92279 8.94333 7.84494 9.03415 7.74016C9.12498 7.63537 9.18256 7.508 9.20013 7.37303C9.2177 7.23807 9.19452 7.10112 9.13331 6.9783C8.58331 5.8674 8.27751 4.95075 8.20601 4.24095C8.11251 3.2991 8.34021 2.6166 8.87261 2.0538C9.27631 1.6275 9.92201 1.3839 10.164 1.4343C10.483 1.4994 10.6909 1.6758 10.9615 2.2932C11.121 2.6586 11.198 2.9694 11.33 3.69495C11.4565 4.38375 11.5258 4.69455 11.6699 5.10195C12.1044 6.33675 13.1703 7.6167 14.6014 8.49975C15.6044 9.11791 16.6914 9.60191 17.8321 9.93825C17.9034 9.95922 17.9775 9.96984 18.0521 9.96975H20.504ZM20.5502 18.9158C20.9055 18.9252 21.2245 18.8496 21.4918 18.6711C21.8328 18.4433 21.9934 18.0842 21.9967 17.6705L21.9934 9.9813C22.0308 9.5718 21.9043 9.1959 21.6051 8.9166C21.3246 8.6541 20.9583 8.5302 20.5711 8.5386H18.1676C17.1954 8.2429 16.2684 7.82557 15.411 7.2975C14.2582 6.5856 13.409 5.565 13.0845 4.6452C12.9734 4.3281 12.914 4.0656 12.8018 3.4482C12.65 2.61975 12.5554 2.2344 12.3376 1.7388C11.8866 0.707704 11.2948 0.203704 10.4786 0.034654C9.67561 -0.131246 8.50631 0.310804 7.76711 1.092C6.94761 1.9572 6.58571 3.03975 6.71991 4.37745C6.77711 4.95285 6.94431 5.5965 7.21931 6.31365C6.28016 6.18301 5.32772 6.16326 4.38351 6.25485C2.17581 6.4701 0.936113 7.84245 1.11651 9.57705C1.19571 10.3247 1.47951 10.9599 1.96241 11.4587C1.55651 12.2052 1.39481 12.9434 1.49601 13.6637C1.61261 14.4932 2.09661 15.1841 2.90181 15.7206C2.96451 16.4483 3.13941 17.0289 3.44961 17.4636C3.69403 17.8148 4.01294 18.1131 4.38571 18.3393C4.50451 19.0575 4.75421 19.6193 5.16231 20.0141C5.83881 20.6714 7.04771 21.063 8.15211 20.9916C9.20041 20.9244 9.82081 20.8026 11.2838 20.3616C12.2485 20.0708 14.2461 19.5878 17.2568 18.9158H20.5513H20.5502ZM18.6791 9.6432C18.6794 9.54926 18.6603 9.45619 18.6228 9.36932C18.5853 9.28245 18.5303 9.20349 18.4608 9.13697C18.3913 9.07045 18.3088 9.01767 18.2179 8.98165C18.127 8.94564 18.0295 8.9271 17.9311 8.9271C17.8329 8.92738 17.7357 8.94612 17.645 8.98226C17.5544 9.01839 17.4721 9.07122 17.4028 9.13771C17.3336 9.20421 17.2787 9.28307 17.2414 9.36981C17.2041 9.45654 17.185 9.54944 17.1853 9.6432V17.7051C17.1852 17.7989 17.2044 17.8917 17.2418 17.9784C17.2793 18.0651 17.3343 18.1439 17.4036 18.2103C17.473 18.2767 17.5554 18.3294 17.6461 18.3654C17.7367 18.4014 17.834 18.42 17.9322 18.4202C18.0304 18.42 18.1277 18.4014 18.2184 18.3654C18.3091 18.3294 18.3915 18.2767 18.4608 18.2103C18.5302 18.1439 18.5851 18.0651 18.6226 17.9784C18.6601 17.8917 18.6793 17.7989 18.6791 17.7051V9.6432Z" fill="black"/>
</g>
<defs>
<clipPath id="clip0_1_379">
<rect width="22" height="21" fill="white" transform="matrix(-1 0 0 1 22 0)"/>
</clipPath>
</defs>
</svg>
