<svg width="23" height="21" viewBox="0 0 23 21" fill="none" xmlns="http://www.w3.org/2000/svg">
<g clip-path="url(#clip0_1_326)">
<path d="M21.436 9.96977V17.4846H17.9515L17.7755 17.5035C14.5406 18.1923 12.397 18.689 11.3286 18.9966C9.90953 19.4051 9.38053 19.5048 8.41798 19.5636C7.69808 19.6088 6.88043 19.3557 6.50783 19.0092C6.30198 18.8181 6.14788 18.4254 6.08693 17.8164C6.0743 17.6887 6.0243 17.5665 5.94216 17.4625C5.86001 17.3585 5.74875 17.2765 5.62003 17.2253C5.33368 17.1119 5.09563 16.9271 4.89668 16.6583C4.71268 16.4126 4.59308 15.9548 4.57123 15.2922C4.56738 15.1704 4.52956 15.0515 4.46134 14.9468C4.39312 14.8421 4.29676 14.755 4.18138 14.6937C3.51208 14.3399 3.18088 13.9409 3.11188 13.4726C3.03597 12.9549 3.21998 12.3722 3.70183 11.7086C3.81488 11.5529 3.85699 11.3632 3.81919 11.1796C3.78139 10.9961 3.66667 10.8333 3.49943 10.7258C3.03827 10.4297 2.78528 10.0181 2.72203 9.43427C2.62083 8.50397 3.27058 7.81622 4.74143 7.67867C6.05143 7.56037 7.37407 7.66107 8.64453 7.97582C8.78864 8.01021 8.94052 8.0063 9.08228 7.96455C9.22405 7.9228 9.3498 7.84496 9.44476 7.74017C9.53971 7.63538 9.59992 7.50801 9.61828 7.37305C9.63665 7.23808 9.61241 7.10114 9.54843 6.97832C8.97343 5.86742 8.65373 4.95077 8.57898 4.24097C8.48123 3.29912 8.71928 2.61662 9.27588 2.05382C9.69793 1.62752 10.373 1.38392 10.626 1.43432C10.9595 1.49942 11.1768 1.67582 11.4597 2.29322C11.6265 2.65862 11.707 2.96942 11.845 3.69497C11.9772 4.38377 12.0497 4.69457 12.2003 5.10197C12.6546 6.33677 13.7689 7.61672 15.2651 8.49977C16.3137 9.11792 17.4501 9.60193 18.6426 9.93827C18.7171 9.95924 18.7947 9.96986 18.8726 9.96977H21.436ZM21.4843 18.9158C21.8557 18.9252 22.1892 18.8496 22.4687 18.6711C22.8252 18.4433 22.9931 18.0842 22.9965 17.6705L22.9931 9.98132C23.0322 9.57182 22.8999 9.19592 22.5871 8.91662C22.2939 8.65412 21.9109 8.53022 21.5061 8.53862H18.9934C17.9769 8.24291 17.0079 7.82558 16.1115 7.29752C14.9063 6.58562 14.0185 5.56502 13.6792 4.64522C13.5631 4.32812 13.501 4.06562 13.3837 3.44822C13.225 2.61977 13.1261 2.23442 12.8984 1.73882C12.4269 0.707719 11.8082 0.203719 10.9549 0.0346693C10.1154 -0.131231 8.89293 0.310819 8.12013 1.09202C7.26338 1.95722 6.88503 3.03977 7.02533 4.37747C7.08513 4.95287 7.25993 5.59652 7.54743 6.31367C6.56558 6.18302 5.56986 6.16328 4.58273 6.25487C2.27468 6.47012 0.978624 7.84247 1.16722 9.57707C1.25002 10.3247 1.54673 10.9599 2.05158 11.4587C1.62723 12.2052 1.45818 12.9434 1.56398 13.6637C1.68588 14.4932 2.19188 15.1841 3.03368 15.7206C3.09923 16.4483 3.28208 17.0289 3.60637 17.4636C3.8619 17.8148 4.1953 18.1131 4.58503 18.3393C4.70922 19.0575 4.97028 19.6193 5.39692 20.0141C6.10418 20.6714 7.36803 21.063 8.52263 20.9916C9.61858 20.9244 10.2672 20.8026 11.7967 20.3616C12.8052 20.0708 14.8936 19.5878 18.0412 18.9158H21.4854H21.4843ZM19.5281 9.64322C19.5284 9.54928 19.5084 9.45621 19.4693 9.36934C19.4301 9.28247 19.3725 9.20351 19.2999 9.13699C19.2273 9.07046 19.1409 9.01768 19.0459 8.98167C18.9509 8.94565 18.849 8.92712 18.7461 8.92712C18.6434 8.92739 18.5418 8.94613 18.447 8.98227C18.3523 9.01841 18.2662 9.07123 18.1938 9.13773C18.1214 9.20422 18.0641 9.28309 18.0251 9.36982C17.9861 9.45655 17.9661 9.54945 17.9664 9.64322V17.7051C17.9663 17.7989 17.9864 17.8918 18.0255 17.9784C18.0647 18.0651 18.1221 18.1439 18.1947 18.2103C18.2672 18.2767 18.3533 18.3294 18.4481 18.3654C18.5429 18.4014 18.6446 18.42 18.7473 18.4202C18.85 18.42 18.9516 18.4014 19.0464 18.3654C19.1413 18.3294 19.2274 18.2767 19.2999 18.2103C19.3724 18.1439 19.4299 18.0651 19.469 17.9784C19.5082 17.8918 19.5283 17.7989 19.5281 17.7051V9.64322Z" fill="black"/>
</g>
<defs>
<clipPath id="clip0_1_326">
<rect width="23" height="21" fill="white" transform="matrix(-1 0 0 1 23 0)"/>
</clipPath>
</defs>
</svg>
