<svg width="16" height="16" viewBox="0 0 16 16" fill="none" xmlns="http://www.w3.org/2000/svg">
<path fill-rule="evenodd" clip-rule="evenodd" d="M13.1663 6.53394C13.443 6.53394 13.6663 6.75794 13.6663 7.03394C13.6663 10.0954 11.3166 12.6157 8.3332 12.8713L8.333 14.5C8.333 14.776 8.109 15 7.833 15C7.557 15 7.333 14.776 7.333 14.5L7.33346 12.8713C4.34975 12.616 1.99966 10.0956 1.99966 7.03394C1.99966 6.75794 2.22366 6.53394 2.49966 6.53394C2.77633 6.53394 2.99966 6.75794 2.99966 7.03394C2.99966 9.7126 5.16766 11.8926 7.833 11.8926C10.4983 11.8926 12.6663 9.7126 12.6663 7.03394C12.6663 6.75794 12.8903 6.53394 13.1663 6.53394ZM7.833 0.666672C9.60166 0.666672 11.041 2.11134 11.041 3.88734V7.01267C11.041 8.788 9.60166 10.2327 7.833 10.2327C6.06433 10.2327 4.625 8.788 4.625 7.01267V3.88734C4.625 2.11134 6.06433 0.666672 7.833 0.666672ZM7.833 1.66667C6.61566 1.66667 5.625 2.66267 5.625 3.88734V7.01267C5.625 8.236 6.61566 9.23267 7.833 9.23267C9.05033 9.23267 10.041 8.236 10.041 7.01267V3.88734C10.041 2.66267 9.05033 1.66667 7.833 1.66667Z" fill="black" fill-opacity="0.46"/>
</svg>
