<svg width="50" height="57" viewBox="0 0 50 57" fill="none" xmlns="http://www.w3.org/2000/svg">
<path d="M46.0245 16.4943C45.78 15.4399 45.3011 14.4785 44.6357 13.7064C43.9704 12.9342 43.142 12.3785 42.2334 12.0946C38.8874 11.0437 25.4418 11.0437 25.4418 11.0437C25.4418 11.0437 11.9963 11.0437 8.65027 12.0946C7.74169 12.3785 6.91327 12.9342 6.24794 13.7064C5.5826 14.4785 5.10369 15.4399 4.85912 16.4943C4.23435 20.4545 3.93116 24.474 3.95355 28.5C3.93116 32.5259 4.23435 36.5454 4.85912 40.5056C5.10369 41.56 5.5826 42.5214 6.24794 43.2935C6.91327 44.0657 7.74169 44.6214 8.65027 44.9053C11.9963 45.9562 25.4418 45.9562 25.4418 45.9562C25.4418 45.9562 38.8874 45.9562 42.2334 44.9053C43.142 44.6214 43.9704 44.0657 44.6357 43.2935C45.3011 42.5214 45.78 41.56 46.0245 40.5056C46.6493 36.5454 46.9525 32.5259 46.9301 28.5C46.9525 24.474 46.6493 20.4545 46.0245 16.4943ZM21.1442 35.9812V21.0187L32.3027 28.5L21.1442 35.9812Z" fill="#272C24"/>
</svg>
