<svg width="96" height="78" viewBox="0 0 96 78" fill="none" xmlns="http://www.w3.org/2000/svg">
<g clip-path="url(#clip0_420_45)">
<path d="M16.0327 24.5901H16.3278C19.0819 24.3934 21.1475 22.0327 21.0491 19.2786C20.8524 16.5245 18.4917 14.459 15.7376 14.5573C12.9835 14.6557 10.9179 17.1147 11.0163 19.8688C11.1147 22.5245 13.377 24.5901 16.0327 24.5901ZM13.672 17.5081C14.1639 16.918 14.9507 16.5245 15.7376 16.5245H15.9343C17.6065 16.5245 18.9835 17.9016 18.9835 19.5737C18.9835 21.2459 17.6065 22.6229 15.9343 22.6229C14.2622 22.6229 12.8852 21.2459 12.8852 19.5737C12.8852 18.7868 13.1802 18.0983 13.672 17.5081Z" fill="#262626"/>
<path d="M83.3114 19.082L57.0492 17.6066L56.8524 14.6558C56.5574 9.04922 51.7377 4.72135 46.0328 5.01643L12.6885 6.88529C7.08194 7.18037 2.75407 12.0984 3.04915 17.705L4.918 51.1476V51.9345C5.60653 57.0492 9.9344 60.8853 15.0492 60.8853H15.6393L36.9836 59.705V60.2951C36.6885 65.9017 40.918 70.8197 46.6229 71.1148L80.0656 73.082H80.6557C86.0656 73.082 90.5901 68.8525 90.8852 63.4427L92.8524 30C93.2459 24.2951 88.918 19.4755 83.3114 19.082ZM7.08194 11.6066C8.55735 9.93447 10.6229 8.95086 12.7869 8.8525L46.2295 6.98365C50.7541 6.68857 54.6885 10.2295 54.9836 14.7541L55.1803 17.5082L49.9672 17.2132C44.3606 16.9181 39.4426 21.1476 39.1475 26.8525L38.5574 36.1968L29.2131 46.7214C29.0164 47.0164 28.6229 47.1148 28.2295 47.2132C27.836 47.2132 27.541 47.1148 27.2459 46.8197L19.5737 39.9345C18.1967 38.6558 16.1311 38.8525 14.8524 40.2296L6.88522 49.1804L5.11472 17.705C4.918 15.4427 5.70489 13.2787 7.08194 11.6066ZM15.6393 58.8197C11.4098 59.0164 7.6721 56.0656 6.98358 51.8361L16.2295 41.5082C16.4262 41.2132 16.8196 41.1148 17.2131 41.0164C17.6065 41.0164 17.9016 41.1148 18.1967 41.4099L25.8688 48.2951C26.5573 48.8853 27.4426 49.1804 28.3278 49.1804C29.2131 49.1804 30 48.6886 30.5901 48.0984L38.2623 39.4427L37.1803 57.7378L15.6393 58.8197ZM90.8852 29.8033L88.918 63.2459C88.6229 67.7705 84.6885 71.3115 80.1639 71.0164L46.7213 69.0492C42.1967 68.7541 38.6557 64.8197 38.9508 60.2951L40.918 26.8525C41.2131 22.5246 44.7541 19.082 49.1803 19.082H49.6721L83.1147 21.0492C87.7377 21.3443 91.1803 25.2787 90.8852 29.8033Z" fill="#262626"/>
<path d="M76.918 41.9016L60.2951 30.9836C58.2295 29.6065 55.4754 30.1967 54.1967 32.2623C53.8033 32.9508 53.5082 33.6393 53.5082 34.4262L52.3279 54.1967C52.2295 56.6557 54 58.7213 56.459 58.918H56.7541C57.4426 58.918 58.1312 58.7213 58.7213 58.4262L76.4262 49.5738C78.5902 48.4918 79.4754 45.8361 78.3934 43.6721C78 42.9836 77.5082 42.3934 76.918 41.9016ZM75.541 47.8033L57.8361 56.6557C57.4426 56.8524 57.0492 56.9508 56.5574 56.9508C56.1639 56.9508 55.6721 56.7541 55.3771 56.5574C54.6885 56.0656 54.1967 55.2787 54.2951 54.3934L55.4754 34.6229C55.5738 33.7377 56.0656 32.9508 56.8525 32.5574C57.6394 32.1639 58.5246 32.2623 59.3115 32.6557L75.7377 43.5738C76.918 44.3606 77.2131 45.8361 76.4262 46.918C76.2295 47.3115 75.9344 47.6065 75.541 47.8033Z" fill="#262626"/>
</g>
<defs>
<clipPath id="clip0_420_45">
<rect width="96" height="77" fill="white" transform="translate(0 0.5)"/>
</clipPath>
</defs>
</svg>
