<svg width="23" height="28" viewBox="0 0 23 28" fill="none" xmlns="http://www.w3.org/2000/svg">
<path fill-rule="evenodd" clip-rule="evenodd" d="M11.1847 1.16699C13.8258 1.16699 16.3078 2.47016 18.1721 4.83733C22.0257 9.72799 22.0257 17.6847 18.1721 22.5753C16.283 24.974 13.7394 26.2433 11.1626 26.2433C9.758 26.2433 8.34415 25.8665 7.02132 25.0895C6.63155 24.8912 6.2666 24.7045 6.0046 24.7045C5.70308 24.7068 5.29768 24.8842 4.90607 25.0557C4.10263 25.4057 3.10246 25.842 2.36244 24.9063C1.62518 23.9695 1.96531 22.7037 2.23926 21.6852C2.37439 21.1835 2.5132 20.6655 2.5132 20.2735C2.5132 19.9515 2.39094 19.5408 2.20341 18.9493C0.481607 14.2302 1.2777 8.54266 4.19823 4.83849C6.06252 2.47133 8.54364 1.16699 11.1847 1.16699ZM11.1856 2.91699C8.91226 2.91699 6.77679 4.03933 5.17266 6.07633C2.65937 9.26366 1.97543 14.1578 3.46925 18.2563C3.68436 18.9318 3.89211 19.5898 3.89211 20.2735C3.89211 20.956 3.70734 21.6432 3.54463 22.2498C3.41041 22.7492 3.20725 23.5028 3.33779 23.6685C3.46557 23.8365 4.0631 23.5717 4.45747 23.4002C4.93089 23.1948 5.46775 22.9592 6.00001 22.9545C6.53319 22.9545 7.03603 23.2112 7.56829 23.483C10.8289 25.3963 14.6853 24.526 17.1977 21.3387C20.5126 17.1293 20.5126 10.2822 17.1977 6.07516C15.5926 4.03816 13.4581 2.91699 11.1856 2.91699ZM14.8139 13.0235C15.3213 13.0235 15.7332 13.545 15.7332 14.1901C15.7332 14.8353 15.3213 15.3568 14.8139 15.3568C14.3065 15.3568 13.891 14.8353 13.891 14.1901C13.891 13.545 14.2982 13.0235 14.8056 13.0235H14.8139ZM11.1287 13.0235C11.6362 13.0235 12.048 13.545 12.048 14.1901C12.048 14.8353 11.6362 15.3568 11.1287 15.3568C10.6213 15.3568 10.2058 14.8353 10.2058 14.1901C10.2058 13.545 10.6121 13.0235 11.1205 13.0235H11.1287ZM7.44317 13.0235C7.95061 13.0235 8.36245 13.545 8.36245 14.1901C8.36245 14.8353 7.95061 15.3568 7.44317 15.3568C6.93573 15.3568 6.52022 14.8353 6.52022 14.1901C6.52022 13.545 6.92746 13.0235 7.4349 13.0235H7.44317Z" fill="black" fill-opacity="0.6"/>
</svg>
