<svg width="23" height="28" viewBox="0 0 23 28" fill="none" xmlns="http://www.w3.org/2000/svg">
<path d="M8.39727 24.2356V20.6683C8.39727 19.7576 8.98321 19.0194 9.706 19.0194H12.3482C12.6953 19.0194 13.0281 19.1931 13.2736 19.5023C13.519 19.8116 13.6569 20.231 13.6569 20.6683V24.2356C13.6547 24.6142 13.7725 24.9782 13.9842 25.2469C14.196 25.5156 14.484 25.6667 14.7845 25.6667H16.5871C17.429 25.6695 18.2372 25.25 18.8332 24.501C19.4293 23.7519 19.7643 22.7349 19.7643 21.6742V11.5114C19.7643 10.6546 19.4628 9.84186 18.9412 9.29215L12.8091 3.12189C11.7424 2.04003 10.2141 2.07496 9.17922 3.20485L3.18704 9.29215C2.64075 9.82565 2.31423 10.6408 2.2981 11.5114V21.6638C2.2981 23.8745 3.72056 25.6667 5.47527 25.6667H7.2367C7.86083 25.6667 8.36806 25.0323 8.37258 24.246L8.39727 24.2356Z" fill="#0C4195"/>
</svg>
