<svg width="23" height="28" viewBox="0 0 23 28" fill="none" xmlns="http://www.w3.org/2000/svg">
<path fill-rule="evenodd" clip-rule="evenodd" d="M9.53375 23.457C10.0099 24.1301 10.6213 24.5 11.2556 24.5H11.2565C11.8935 24.5 12.5076 24.1301 12.9847 23.4558C13.2403 23.0976 13.676 23.0685 13.9582 23.3916C14.2414 23.7148 14.2643 24.269 14.0097 24.6271C13.2669 25.6736 12.2897 26.25 11.2565 26.25H11.2546C10.2241 26.2488 9.24878 25.6725 8.50876 24.626C8.25412 24.2678 8.2771 23.7136 8.56024 23.3916C8.84338 23.0673 9.27911 23.0965 9.53375 23.457ZM11.3013 1.16663C15.3875 1.16663 18.1325 5.20563 18.1325 8.97746C18.1325 10.9176 18.5213 11.7401 18.9341 12.6128C19.3422 13.4738 19.8046 14.4515 19.8046 16.2995C19.4838 21.021 15.5999 21.406 11.3013 21.406C7.00281 21.406 3.11796 21.021 2.80079 16.3741C2.79805 14.4515 3.26044 13.4738 3.6686 12.6128L3.81269 12.305C4.16747 11.5311 4.47021 10.6894 4.47021 8.97746C4.47021 5.20563 7.21516 1.16663 11.3013 1.16663ZM11.3013 2.91663C8.08847 2.91663 5.84912 6.11096 5.84912 8.97746C5.84912 11.403 5.3187 12.5241 4.84987 13.5135C4.47388 14.308 4.17696 14.9356 4.17696 16.2995C4.33048 18.4998 5.47497 19.656 11.3013 19.656C17.0955 19.656 18.2759 18.4485 18.4285 16.2236C18.4257 14.9356 18.1288 14.308 17.7528 13.5135C17.284 12.5241 16.7535 11.403 16.7535 8.97746C16.7535 6.11096 14.5142 2.91663 11.3013 2.91663Z" fill="black" fill-opacity="0.6"/>
</svg>
