<svg width="50" height="57" viewBox="0 0 50 57" fill="none" xmlns="http://www.w3.org/2000/svg">
<path d="M34.2324 5.34375H16.3721C13.6098 5.34729 10.9615 6.66209 9.00828 8.99967C7.05506 11.3372 5.95645 14.5067 5.95349 17.8125V39.1875C5.95645 42.4933 7.05506 45.6628 9.00828 48.0003C10.9615 50.3379 13.6098 51.6527 16.3721 51.6562H34.2324C36.9947 51.6527 39.643 50.3379 41.5962 48.0003C43.5494 45.6628 44.648 42.4933 44.651 39.1875V17.8125C44.648 14.5067 43.5494 11.3372 41.5962 8.99967C39.643 6.66209 36.9947 5.34729 34.2324 5.34375ZM25.3022 39.1875C23.536 39.1875 21.8095 38.5607 20.3409 37.3863C18.8723 36.212 17.7277 34.5428 17.0518 32.5899C16.3759 30.637 16.1991 28.4881 16.5436 26.415C16.8882 24.3418 17.7387 22.4375 18.9876 20.9428C20.2366 19.4481 21.8278 18.4302 23.5601 18.0179C25.2923 17.6055 27.0879 17.8171 28.7197 18.626C30.3515 19.4349 31.7462 20.8048 32.7274 22.5623C33.7087 24.3199 34.2324 26.3862 34.2324 28.5C34.23 31.3336 33.2883 34.0503 31.6141 36.054C29.9399 38.0576 27.6699 39.1846 25.3022 39.1875ZM36.465 17.8125C36.0234 17.8125 35.5918 17.6558 35.2247 17.3622C34.8575 17.0686 34.5714 16.6513 34.4024 16.1631C34.2334 15.6749 34.1892 15.1377 34.2753 14.6194C34.3615 14.1011 34.5741 13.625 34.8863 13.2513C35.1986 12.8777 35.5964 12.6232 36.0294 12.5201C36.4625 12.417 36.9114 12.4699 37.3193 12.6721C37.7273 12.8744 38.076 13.2168 38.3213 13.6562C38.5666 14.0956 38.6975 14.6122 38.6975 15.1406C38.6975 15.8492 38.4623 16.5289 38.0436 17.0299C37.625 17.531 37.0571 17.8125 36.465 17.8125ZM31.2557 28.5C31.2557 29.9092 30.9065 31.2867 30.2524 32.4584C29.5982 33.6301 28.6684 34.5434 27.5805 35.0826C26.4927 35.6219 25.2956 35.763 24.1408 35.4881C22.9859 35.2132 21.9251 34.5346 21.0925 33.5381C20.2599 32.5417 19.6929 31.2721 19.4632 29.89C19.2335 28.5079 19.3514 27.0753 19.802 25.7734C20.2526 24.4715 21.0156 23.3587 21.9947 22.5758C22.9737 21.7929 24.1248 21.375 25.3022 21.375C26.8812 21.375 28.3955 22.1257 29.512 23.4619C30.6285 24.7981 31.2557 26.6103 31.2557 28.5Z" fill="#363D33"/>
</svg>
