<svg width="23" height="28" viewBox="0 0 23 28" fill="none" xmlns="http://www.w3.org/2000/svg">
<path fill-rule="evenodd" clip-rule="evenodd" d="M18.8421 21.2253C18.8421 25.0706 14.6869 25.5151 11.5623 25.5151L11.3387 25.5149C9.34799 25.5088 4.28076 25.3492 4.28076 21.202C4.28076 17.4351 8.26889 16.9317 11.3697 16.9127L11.7859 16.9124C13.7765 16.9185 18.8421 17.078 18.8421 21.2253ZM11.5623 18.6621C7.6453 18.6621 5.65967 19.5161 5.65967 21.202C5.65967 22.903 7.6453 23.7651 11.5623 23.7651C15.4784 23.7651 17.4631 22.9111 17.4631 21.2253C17.4631 19.5243 15.4784 18.6621 11.5623 18.6621ZM11.5623 2.33301C14.254 2.33301 16.4428 5.11201 16.4428 8.52801C16.4428 11.944 14.254 14.7218 11.5623 14.7218H11.5329C8.84679 14.7113 6.67087 11.9312 6.68004 8.52451C6.68004 5.11201 8.86978 2.33301 11.5623 2.33301ZM11.5623 3.99901C9.59416 3.99901 7.99277 6.03017 7.99277 8.52801C7.98635 11.0177 9.57578 13.0477 11.5357 13.057L11.5623 13.89V13.057C13.5296 13.057 15.13 11.0247 15.13 8.52801C15.13 6.03017 13.5296 3.99901 11.5623 3.99901Z" fill="black" fill-opacity="0.6"/>
</svg>
