<svg width="20" height="20" viewBox="0 0 20 20" fill="none" xmlns="http://www.w3.org/2000/svg">
<path fill-rule="evenodd" clip-rule="evenodd" d="M9.75818 1.66663C13.9845 1.66663 17.4223 5.30663 17.4223 9.78163C17.4223 11.8929 16.6571 13.8185 15.4049 15.2637L17.8689 17.8672C18.0995 18.1114 18.1003 18.5064 17.8697 18.7505C17.7547 18.8739 17.6029 18.9347 17.4517 18.9347C17.3014 18.9347 17.1503 18.8739 17.0346 18.7522L14.5409 16.1191C13.229 17.2315 11.5657 17.8975 9.75818 17.8975C5.53181 17.8975 2.09326 14.2566 2.09326 9.78163C2.09326 5.30663 5.53181 1.66663 9.75818 1.66663ZM9.75818 2.91663C6.18269 2.91663 3.27381 5.99579 3.27381 9.78163C3.27381 13.5675 6.18269 16.6475 9.75818 16.6475C13.3329 16.6475 16.2418 13.5675 16.2418 9.78163C16.2418 5.99579 13.3329 2.91663 9.75818 2.91663Z" fill="#1C1C1C" fill-opacity="0.7"/>
</svg>
